<?xml version="1.0" standalone="no"?>
<!DOCTYPE svg PUBLIC "-//W3C//DTD SVG 20010904//EN"
 "http://www.w3.org/TR/2001/REC-SVG-20010904/DTD/svg10.dtd">
<svg version="1.0" xmlns="http://www.w3.org/2000/svg"
 width="2400.000000pt" height="2400.000000pt" viewBox="0 0 2400.000000 2400.000000"
 preserveAspectRatio="xMidYMid meet">
<metadata>
Created by potrace 1.11, written by Peter Selinger 2001-2013
</metadata>
<g transform="translate(0.000000,2400.000000) scale(0.100000,-0.100000)"
fill="#000000" stroke="none">
<path d="M16408 23990 c-195 -35 -352 -131 -421 -258 -25 -46 -64 -168 -56
-176 2 -2 36 4 74 14 139 37 263 24 492 -51 171 -56 174 -58 269 -204 249
-384 323 -923 182 -1323 -40 -114 -71 -175 -155 -302 -184 -278 -500 -590
-797 -787 -147 -97 -132 -96 -277 -28 -515 240 -1248 449 -2079 594 -924 161
-1693 195 -2585 115 -2383 -213 -4607 -1213 -6360 -2860 -1416 -1330 -2451
-3020 -2990 -4881 -222 -767 -350 -1496 -411 -2348 -22 -299 -25 -1133 -6
-1415 53 -768 118 -1175 319 -1985 120 -487 183 -694 320 -1065 107 -288 327
-790 488 -1110 660 -1317 1584 -2493 2705 -3441 928 -785 1994 -1412 3125
-1839 735 -277 1501 -473 2265 -580 445 -61 410 -60 1488 -60 935 0 1004 1
1180 21 1881 206 3664 910 5192 2048 85 64 265 204 400 312 747 597 1194 1068
1832 1929 555 750 1003 1552 1353 2425 444 1106 703 2290 765 3493 13 258 13
869 0 1117 -115 2187 -871 4274 -2184 6035 -266 357 -538 676 -882 1036 l-173
181 28 34 c139 170 314 478 424 744 269 655 334 1306 181 1798 -37 117 -141
330 -216 439 -74 108 -220 264 -333 355 -44 35 -172 126 -285 202 l-205 137
-95 12 c-170 22 -370 32 -622 32 l-247 0 -10 38 c-6 20 -27 109 -47 197 -46
206 -91 342 -159 476 -189 378 -459 664 -770 819 -179 89 -276 112 -495 116
-96 1 -196 -1 -222 -6z m643 -438 c173 -78 328 -220 544 -497 171 -219 253
-363 279 -490 84 -407 29 -790 -219 -1510 -101 -293 -158 -476 -150 -483 10
-10 135 121 181 190 104 156 195 419 244 708 7 41 16 79 20 83 16 18 102 -122
145 -238 144 -382 59 -1087 -207 -1710 -103 -240 -195 -394 -359 -596 -120
-148 -614 -642 -749 -749 -298 -236 -750 -492 -1320 -745 -506 -225 -766 -308
-1485 -475 -678 -158 -973 -238 -1219 -328 -58 -22 -106 -36 -106 -32 0 4 44
50 98 102 222 216 441 345 1002 593 442 195 666 309 871 442 101 66 245 155
319 198 607 349 1046 625 1305 820 512 386 851 799 1023 1247 42 109 78 235
70 243 -7 8 -148 -63 -202 -103 -28 -20 -141 -124 -251 -232 -668 -654 -1463
-1097 -2295 -1280 -81 -18 -185 -48 -235 -70 -352 -148 -637 -221 -1485 -380
-267 -51 -555 -107 -640 -126 -328 -73 -618 -162 -827 -255 -164 -72 -158 -68
-428 -274 -49 -38 -125 -85 -167 -105 -76 -35 -79 -39 -147 -137 -38 -55 -123
-172 -189 -259 -278 -369 -382 -580 -431 -875 -38 -235 -46 -330 -46 -614 0
-252 10 -408 31 -478 6 -18 5 -18 -21 -1 -22 14 -34 15 -71 7 -43 -10 -45 -9
-87 28 -53 49 -133 91 -223 119 l-71 21 -26 107 c-42 169 -51 246 -51 407 1
233 38 412 169 800 42 123 96 294 120 381 100 350 252 581 645 976 264 265
290 283 673 449 89 38 286 135 439 215 632 331 705 357 1808 654 1060 285
1485 418 1920 598 550 228 756 368 1260 857 91 88 210 203 265 255 l100 96
102 204 c152 304 224 503 272 751 64 337 48 734 -39 984 -65 185 -165 353
-286 485 l-59 63 60 -5 c35 -3 88 -18 126 -36z m1265 -1517 c143 -25 302 -80
552 -191 129 -58 264 -115 300 -127 55 -19 74 -32 130 -92 239 -257 373 -531
412 -845 23 -193 6 -500 -41 -717 -74 -341 -208 -652 -429 -993 -48 -74 -106
-171 -128 -215 -56 -112 -117 -189 -272 -346 -745 -748 -1896 -1166 -3620
-1314 l-65 -6 170 74 c1030 449 1737 901 2280 1458 496 510 827 1114 942 1720
26 139 26 539 -1 659 -38 175 -95 299 -251 546 -86 136 -196 337 -210 382 -6
21 -4 22 68 22 41 0 114 -7 163 -15z m-5566 -1750 c338 -30 761 -103 1025
-175 61 -17 184 -49 274 -72 l164 -41 -54 -24 c-279 -125 -575 -212 -1254
-369 -812 -188 -1019 -257 -1540 -514 -377 -186 -782 -433 -1012 -618 -449
-362 -843 -1030 -987 -1675 -30 -130 -60 -331 -77 -497 -6 -63 -12 -117 -14
-118 -11 -12 -453 -58 -1010 -107 -693 -61 -919 -84 -1245 -131 -863 -123
-1448 -358 -1805 -724 l-50 -51 1 -207 c0 -174 4 -223 22 -309 57 -262 165
-477 375 -745 42 -54 83 -110 90 -125 35 -69 222 -653 436 -1363 285 -946 370
-1189 674 -1915 235 -563 330 -803 407 -1030 21 -60 41 -118 45 -127 9 -21 14
-21 -360 -53 -1322 -114 -2223 -288 -2910 -563 -630 -252 -882 -477 -942 -843
l-17 -102 -38 114 c-98 288 -214 717 -277 1019 -195 944 -235 2040 -110 3030
201 1597 808 3103 1779 4415 491 664 1098 1291 1760 1817 1135 902 2456 1543
3840 1863 632 147 1175 225 1770 255 250 12 831 4 1040 -15z m3359 -1282
c-209 -217 -467 -411 -863 -647 -274 -164 -798 -436 -1236 -641 -454 -213
-1457 -747 -1615 -860 -187 -133 -406 -328 -755 -670 -140 -138 -294 -286
-341 -330 -76 -72 -87 -86 -93 -125 -14 -88 -90 -355 -108 -379 -11 -14 -18
-41 -18 -67 l0 -44 -38 0 c-27 0 -48 9 -76 32 l-39 32 6 175 c9 270 58 463
176 706 104 213 239 401 421 589 179 185 372 340 606 488 365 231 632 349
1663 738 719 271 760 287 975 374 549 223 1065 483 1351 679 28 19 52 33 54
31 2 -2 -29 -39 -70 -81z m2467 -1526 c1517 -1548 2519 -3561 2783 -5587 133
-1020 78 -2136 -159 -3195 -35 -157 -89 -375 -96 -386 -2 -4 -39 4 -81 18
-351 112 -664 159 -1243 188 -322 16 -398 21 -870 60 -776 64 -1102 58 -1429
-26 -64 -17 -255 -77 -426 -134 -406 -136 -642 -194 -871 -214 -195 -17 -283
8 -472 133 -165 108 -196 120 -482 181 -241 51 -327 79 -419 134 -98 59 -144
52 -182 -28 -12 -25 -23 -47 -25 -49 -1 -2 -25 21 -53 51 -71 75 -163 116
-388 172 -193 48 -303 84 -342 114 l-24 19 19 33 c13 23 46 47 107 80 393 214
1299 1051 1717 1587 344 443 592 940 654 1312 116 706 -59 1283 -510 1682
-194 170 -514 347 -784 433 -30 10 -58 20 -62 24 -4 4 10 41 32 82 101 193
149 370 150 548 0 237 -80 413 -271 596 -386 368 -1111 603 -2466 797 -140 20
-233 37 -233 44 0 16 41 51 75 64 17 7 68 23 114 36 97 29 138 54 157 99 12
30 19 33 146 67 518 141 1026 222 2128 343 847 92 1177 134 1525 190 894 145
1528 356 1985 661 52 35 98 64 101 64 4 0 91 -87 195 -193z m-9292 -1644 c19
-68 76 -416 76 -468 l0 -30 -238 -1 c-504 -3 -1217 -55 -1657 -120 -324 -48
-689 -135 -872 -208 l-63 -24 -15 21 c-8 12 -26 51 -40 88 -30 78 -61 110
-107 112 -30 2 -35 -2 -57 -47 -58 -116 -34 -202 89 -319 91 -87 199 -146 371
-202 425 -137 1086 -218 2189 -267 361 -16 2453 -15 2805 1 132 6 348 16 480
21 259 10 407 26 623 65 154 29 508 118 652 165 249 81 448 214 543 361 16 24
16 27 -13 72 -37 59 -124 117 -228 151 -192 64 -921 213 -1232 252 -252 31
-868 28 -903 -5 -4 -4 91 -17 210 -30 948 -98 1246 -143 1568 -236 150 -44
299 -100 240 -91 -121 19 -382 40 -851 71 -648 42 -786 57 -1364 148 l-145 23
2 53 c4 95 49 171 164 282 l100 97 165 7 c348 15 883 -19 1262 -81 162 -27
497 -108 697 -169 290 -88 605 -226 770 -337 167 -111 277 -252 291 -373 10
-79 -58 -279 -113 -337 -41 -43 -155 -111 -263 -156 -52 -22 -144 -60 -203
-85 -154 -65 -217 -104 -217 -137 0 -51 51 -86 164 -114 150 -37 161 -55 153
-251 -7 -168 -25 -268 -121 -683 -73 -313 -116 -535 -116 -596 l1 -31 44 50
c53 59 124 198 159 311 13 44 45 180 70 302 25 122 55 260 67 307 21 83 24 87
85 144 173 158 419 191 753 101 36 -10 66 -34 175 -143 188 -189 321 -387 406
-604 198 -504 151 -1035 -138 -1557 -94 -171 -252 -394 -501 -706 -140 -176
-514 -554 -726 -735 -261 -221 -647 -507 -907 -670 l-96 -60 -103 -185 c-303
-542 -492 -720 -869 -817 -33 -8 -36 -12 -48 -73 -64 -318 -155 -615 -252
-817 l-59 -124 -64 -29 c-299 -135 -782 -238 -1350 -286 -234 -20 -810 -23
-1037 -6 -655 51 -1187 188 -1470 377 -90 61 -216 193 -267 281 l-41 69 -6
170 c-16 476 -103 981 -261 1520 -72 243 -193 592 -370 1066 -199 528 -227
607 -445 1249 -199 587 -325 946 -490 1400 -146 402 -388 1047 -402 1075 -6
11 -77 98 -157 195 -165 197 -218 266 -278 360 -61 95 -123 229 -123 265 0 46
41 119 125 223 42 52 84 111 95 132 18 35 29 42 122 78 654 252 1487 403 2798
507 788 62 757 60 764 38z m-2279 -6941 c142 -31 236 -85 301 -173 42 -58 69
-132 79 -216 l7 -63 -144 0 c-325 0 -816 -30 -1088 -66 -454 -59 -844 -165
-1120 -304 l-75 -38 60 -7 c90 -12 364 2 505 24 69 11 258 45 420 75 380 70
529 89 720 89 318 2 522 -61 508 -155 -3 -23 -6 -23 -273 -45 -586 -47 -925
-102 -1203 -197 -125 -42 -243 -96 -237 -106 3 -5 38 -14 77 -20 109 -19 364
-7 633 29 127 17 291 35 366 41 231 18 431 -14 547 -89 58 -37 102 -81 81 -81
-33 0 -364 -42 -479 -60 -223 -37 -513 -111 -543 -140 -12 -11 85 -45 168 -59
44 -7 234 -13 505 -14 413 -3 439 -4 514 -25 82 -23 198 -79 198 -97 0 -5 -20
-16 -43 -23 -86 -24 -259 -33 -524 -25 -143 5 -288 6 -322 3 l-63 -5 20 -33
c42 -68 122 -97 330 -117 161 -16 268 -33 275 -45 14 -23 -347 -27 -515 -5
-169 22 -242 36 -780 146 -271 55 -584 123 -694 150 -553 139 -918 307 -1153
531 -33 33 -67 73 -73 89 -13 31 -13 32 65 177 32 60 46 152 23 152 -22 0
-101 -53 -131 -90 -76 -90 -110 -206 -111 -377 -1 -121 -1 -122 28 -152 109
-113 396 -266 677 -359 208 -69 360 -108 839 -217 366 -83 539 -127 700 -180
87 -28 192 -47 620 -109 1998 -292 2796 -338 4350 -250 1099 61 1907 184 2622
398 l158 47 122 -60 c199 -98 468 -176 693 -202 155 -17 155 -17 30 -84 -353
-190 -684 -292 -1193 -371 -123 -19 -387 -63 -585 -99 -390 -69 -710 -117
-902 -135 -66 -6 -298 -12 -515 -14 -332 -3 -440 -7 -675 -29 -445 -42 -506
-47 -765 -53 -304 -8 -426 3 -570 50 -98 32 -119 35 -315 45 -947 51 -1347 84
-1728 141 -147 23 -191 33 -417 101 -226 68 -324 86 -561 104 -369 29 -451 49
-1349 342 -705 229 -905 305 -1340 509 -256 120 -431 355 -431 579 -1 150 45
256 164 382 176 185 387 273 1272 532 250 73 388 109 515 135 181 37 695 105
945 126 72 5 148 12 170 14 22 2 148 2 280 1 192 -3 258 -7 330 -23z m6790
-343 c403 -68 755 -155 1063 -260 161 -56 335 -130 325 -139 -15 -14 -465
-227 -593 -281 -333 -140 -531 -197 -825 -239 -304 -43 -415 -79 -512 -163
-42 -38 -103 -128 -103 -154 0 -18 80 -38 264 -68 184 -30 252 -53 303 -101
l36 -34 -29 -31 c-71 -75 -149 -101 -394 -129 -99 -12 -247 -38 -340 -60 -251
-59 -507 -108 -660 -125 -30 -3 -73 -8 -95 -11 l-40 -6 70 50 c360 257 534
547 561 937 l7 95 76 2 c164 3 388 -4 651 -23 151 -10 339 -19 418 -19 l142 0
0 53 c-1 106 -62 181 -177 217 -55 17 -110 23 -293 30 -211 9 -281 15 -322 26
-41 12 -13 93 90 266 38 65 76 138 83 164 l14 46 55 -7 c30 -4 132 -20 225
-36z m4610 -209 c66 -16 264 -48 365 -59 185 -21 330 -31 765 -51 653 -30 877
-51 1137 -106 141 -30 338 -92 344 -108 6 -16 -128 -419 -214 -641 -370 -960
-875 -1830 -1521 -2620 -397 -485 -881 -969 -1368 -1365 -173 -142 -443 -343
-621 -465 l-144 -98 -86 12 c-48 7 -163 29 -257 51 -245 56 -312 67 -529 90
-107 11 -216 24 -243 29 -107 21 -200 63 -267 121 -33 29 -33 30 -24 87 19
130 101 238 221 293 118 54 184 62 627 70 320 7 421 12 480 25 77 17 110 30
110 43 0 5 -15 22 -32 40 -56 53 -96 63 -283 73 -93 5 -217 13 -275 19 -58 5
-312 14 -565 20 -253 6 -548 15 -655 20 -270 14 -819 57 -974 76 -337 41 -483
115 -928 467 -92 73 -191 150 -221 170 -65 45 -53 43 -597 87 -770 62 -1071
104 -1331 186 -180 56 -332 162 -393 274 l-28 52 33 35 c48 49 157 98 274 123
91 20 144 23 565 30 479 8 519 11 751 59 161 33 329 78 684 181 363 106 555
156 945 245 353 80 486 117 745 202 270 89 419 143 696 251 112 44 270 103
352 131 202 70 230 84 407 200 179 117 218 132 411 156 181 22 213 30 294 74
54 30 126 53 305 100 557 145 632 170 684 231 31 38 32 50 6 78 -31 33 -88 44
-165 32 -115 -18 -314 -66 -511 -124 -271 -78 -374 -98 -524 -99 -117 -2 -130
0 -205 29 -104 40 -123 52 -137 92 -7 17 -15 32 -19 32 -9 0 -190 -29 -624
-99 -501 -81 -785 -111 -1059 -111 -170 0 -378 21 -494 50 -109 28 -222 72
-222 87 0 19 56 51 120 69 145 41 179 56 210 90 25 29 30 43 30 85 0 28 -8 79
-17 114 -26 96 -17 107 93 124 128 19 278 67 583 185 524 204 627 223 1086
204 239 -10 285 -9 400 6 175 23 352 62 650 146 388 109 628 169 765 189 136
21 332 26 395 11z m-15146 -1173 c251 -239 622 -482 955 -623 55 -24 102 -47
104 -52 2 -6 -8 -23 -21 -38 -22 -26 -32 -29 -98 -32 -41 -2 -120 0 -176 5
-56 5 -121 7 -144 5 l-41 -4 5 -40 c7 -53 49 -136 101 -200 68 -85 102 -139
122 -197 l19 -55 110 3 c61 1 220 11 355 23 313 26 696 34 842 18 279 -31 402
-79 705 -279 225 -148 285 -181 393 -219 146 -50 252 -70 615 -112 143 -16
346 -43 450 -60 692 -111 1143 -166 1720 -211 83 -6 381 -13 662 -15 l513 -3
142 -144 c196 -198 310 -276 525 -361 297 -117 497 -152 1268 -221 220 -20
418 -41 440 -46 125 -34 218 -90 517 -312 416 -309 534 -371 809 -424 140 -27
596 -24 722 4 l88 19 37 -40 c21 -23 54 -68 74 -101 36 -59 51 -94 138 -318
96 -248 231 -375 488 -460 132 -44 265 -68 592 -107 341 -40 350 -42 350 -49
0 -9 -306 -175 -487 -265 -1026 -511 -2174 -836 -3318 -940 -563 -52 -1187
-52 -1750 0 -2546 231 -4893 1498 -6511 3514 -547 681 -1013 1466 -1340 2258
-35 83 -60 152 -57 152 3 0 40 -33 82 -73z m3351 -1153 c764 -173 1742 -294
2915 -360 381 -21 1436 -30 1816 -15 706 28 1371 92 1664 161 22 5 41 7 43 6
10 -10 -113 -102 -182 -136 -203 -101 -458 -145 -1016 -175 -157 -9 -382 -22
-500 -31 -118 -8 -314 -21 -435 -29 -1517 -100 -2976 20 -4068 336 -239 69
-687 232 -687 249 0 6 30 16 105 34 46 11 200 -7 345 -40z"/>
<path d="M11715 20053 c-764 -22 -1551 -157 -2375 -407 -796 -241 -1426 -519
-2130 -940 -349 -208 -544 -349 -900 -645 -116 -97 -170 -134 -272 -186 -115
-60 -137 -77 -253 -187 -69 -66 -217 -222 -328 -347 -111 -124 -298 -325 -417
-446 -290 -296 -360 -382 -440 -544 -34 -68 -85 -210 -78 -217 11 -10 441 -24
738 -24 657 0 1147 37 2120 161 762 97 1172 146 1363 165 164 16 178 19 182
38 3 12 18 82 34 156 118 535 323 997 687 1545 208 315 168 274 609 605 456
342 767 542 1130 725 319 161 465 217 649 249 82 15 168 35 190 45 87 38 142
112 160 212 l6 36 -166 6 c-157 7 -294 7 -509 0z"/>
<path d="M4300 15943 l-55 -4 -102 -207 c-56 -114 -165 -322 -243 -462 -264
-474 -356 -664 -444 -920 -46 -130 -96 -307 -96 -336 0 -12 52 -14 310 -14
310 0 725 -11 1233 -33 l267 -12 0 32 c0 43 -32 143 -63 196 -14 24 -69 95
-122 158 -153 182 -194 294 -182 490 14 212 106 410 290 620 40 46 146 154
235 239 89 85 162 157 162 161 0 4 -73 9 -162 12 -108 3 -248 17 -414 41 -247
35 -481 50 -614 39z"/>
<path d="M3172 13488 c-149 -470 -227 -819 -257 -1155 l-6 -73 1013 0 c946 0
1321 -7 1613 -30 65 -5 120 -8 122 -6 6 6 -111 684 -143 831 -44 196 -107 392
-170 525 l-47 100 -1032 0 -1031 0 -62 -192z"/>
<path d="M5737 11904 c-3 -4 -629 -11 -1389 -16 -761 -5 -1422 -12 -1470 -14
l-88 -5 0 -158 c0 -86 -9 -253 -21 -371 -19 -206 -31 -552 -18 -564 3 -4 71
-2 150 4 497 35 1327 47 2069 31 539 -12 978 -26 1179 -37 l114 -6 -7 28 c-15
59 -99 280 -187 490 -50 121 -127 310 -172 422 l-82 202 -36 0 c-19 0 -38 -3
-42 -6z"/>
<path d="M6275 10408 c-362 -24 -760 -29 -1915 -22 -668 4 -1304 3 -1412 -1
l-198 -7 0 -64 c0 -89 25 -272 60 -432 40 -181 60 -321 60 -409 l0 -73 1190 0
c1364 0 1743 11 2230 66 157 17 399 52 409 58 13 9 -8 150 -34 232 -15 44 -55
132 -91 195 -97 170 -151 286 -170 364 -26 109 -15 101 -129 93z"/>
<path d="M2945 8881 c-7 -45 9 -90 57 -157 32 -44 34 -46 73 -39 22 3 113 15
203 26 235 28 306 48 376 109 32 29 66 77 66 95 0 3 -173 5 -384 5 l-384 0 -7
-39z"/>
<path d="M18425 17280 c-49 -17 -196 -82 -325 -145 -242 -117 -360 -165 -632
-254 -499 -163 -1122 -295 -1778 -375 -253 -31 -357 -40 -775 -66 -503 -31
-667 -46 -885 -81 -213 -35 -455 -101 -586 -161 l-49 -23 155 -7 c667 -29
1075 -33 3482 -33 2483 0 2488 0 2482 20 -21 70 -95 216 -157 307 -113 168
-431 562 -547 678 -168 168 -232 191 -385 140z"/>
<path d="M14735 15893 c43 -102 106 -161 300 -281 80 -50 163 -110 195 -142
l55 -55 38 -155 c54 -218 67 -308 68 -440 0 -154 -29 -321 -85 -479 -9 -24
-16 -50 -16 -57 0 -22 108 -122 174 -160 33 -20 98 -49 146 -64 182 -61 135
-59 1985 -66 1152 -5 1833 -3 2140 5 477 12 870 29 921 40 l31 6 -57 155
c-159 432 -412 935 -722 1435 -41 66 -99 159 -129 207 l-54 88 -2503 0 -2502
0 15 -37z"/>
<path d="M16170 13701 c-14 -10 -34 -20 -44 -22 -48 -10 -40 -30 69 -194 123
-183 255 -443 309 -608 54 -165 94 -366 109 -542 l2 -30 100 -7 c473 -31 640
-33 2512 -33 l1903 0 0 35 c0 69 -31 298 -60 440 -16 80 -76 310 -133 510 -58
201 -110 389 -117 418 l-12 54 -52 -6 c-28 -3 -168 -11 -311 -18 -343 -17
-2414 -17 -3165 -1 -1168 26 -1082 26 -1110 4z"/>
<path d="M16561 11838 c-18 -41 -30 -88 -34 -135 -9 -106 -56 -233 -178 -480
-114 -232 -182 -393 -171 -405 4 -4 970 -9 2147 -11 1899 -4 2576 -11 2851
-31 68 -5 72 -4 77 17 9 34 9 194 1 670 l-7 437 -2329 0 -2329 0 -28 -62z"/>
<path d="M15824 10372 l-62 -7 -65 -80 c-156 -192 -371 -407 -547 -547 -127
-100 -201 -177 -233 -241 -43 -87 -41 -92 23 -90 30 2 154 7 275 13 649 30
1759 39 2695 20 1459 -28 2057 -33 2560 -21 278 7 557 15 621 18 l116 6 6 161
c3 88 13 220 23 291 16 132 25 457 12 470 -4 4 -110 3 -235 -4 -692 -35 -1712
-35 -3003 0 -433 11 -2101 20 -2186 11z"/>
<path d="M18705 8989 c-134 -20 -369 -95 -342 -110 19 -11 255 -47 417 -63
160 -17 324 -28 745 -51 652 -35 969 -78 1254 -170 58 -19 108 -32 113 -29 15
10 55 98 68 151 13 58 17 189 6 201 -8 7 -530 9 -1291 4 -427 -2 -428 -2 -629
52 -105 28 -218 33 -341 15z"/>
<path d="M14951 8925 c-17 -20 -31 -37 -31 -39 0 -3 33 -10 72 -16 143 -24
261 -76 513 -224 253 -150 382 -198 576 -216 233 -22 396 13 754 160 191 79
260 101 475 155 291 72 402 115 480 185 l35 31 -80 -5 c-44 -3 -163 -11 -265
-18 -272 -18 -1306 -16 -1839 5 -238 9 -484 17 -546 17 l-113 0 -31 -35z"/>
<path d="M5777 15123 c-4 -3 -7 -15 -7 -25 0 -11 -10 -42 -22 -70 l-21 -50 52
-107 c73 -146 147 -254 228 -332 83 -80 121 -101 249 -133 265 -67 513 -107
810 -131 199 -16 273 -11 321 20 24 16 48 53 39 62 -2 3 -58 9 -123 14 -502
37 -914 193 -1185 447 -75 71 -179 211 -207 280 -13 31 -16 32 -71 32 -31 0
-60 -3 -63 -7z"/>
<path d="M6104 14368 c13 -69 69 -162 135 -228 151 -149 367 -217 881 -280
292 -35 506 -64 840 -114 708 -105 758 -109 1685 -107 1469 2 2136 46 2735
177 120 27 363 94 357 100 -2 2 -230 -8 -508 -21 -1796 -87 -2937 -86 -3906 5
-865 81 -1589 237 -2109 455 -59 25 -109 45 -112 45 -2 0 -2 -15 2 -32z"/>
<path d="M6763 13684 c-22 -5 -23 -9 -23 -129 l0 -123 113 -21 c330 -61 561
-80 1372 -111 154 -6 345 -15 425 -20 79 -5 146 -8 148 -6 2 2 -14 21 -34 41
-120 120 -427 182 -1159 235 -420 31 -501 43 -608 91 -88 39 -176 55 -234 43z"/>
<path d="M6782 13109 l3 -123 115 -37 c139 -45 275 -73 435 -90 175 -18 1175
1 1175 22 0 25 -73 97 -125 124 l-60 30 -280 1 c-347 1 -421 11 -978 138 -108
25 -218 48 -242 52 l-46 6 3 -123z"/>
<path d="M14998 12920 c-199 -34 -355 -146 -521 -374 -225 -310 -314 -394
-487 -456 l-75 -28 -28 -93 c-142 -472 -270 -812 -568 -1515 -194 -459 -262
-623 -359 -864 -128 -319 -300 -814 -287 -826 9 -9 138 140 190 219 29 45 99
159 154 252 220 370 275 427 678 695 110 73 238 161 285 195 61 45 108 70 167
89 45 15 87 34 95 43 7 8 27 46 43 83 28 63 40 76 185 201 188 161 476 448
585 582 286 351 442 662 501 997 23 130 24 354 1 437 -30 112 -99 224 -196
317 -32 32 -51 41 -93 47 -68 10 -209 9 -270 -1z m84 -554 c18 -8 54 -18 80
-21 55 -7 66 -21 75 -95 14 -118 -50 -346 -159 -568 -76 -156 -57 -135 -237
-269 -71 -53 -101 -100 -126 -198 -15 -56 -23 -67 -119 -160 -127 -124 -229
-198 -546 -397 l-250 -156 0 35 c0 58 30 241 56 345 137 546 516 1049 1076
1429 56 38 105 69 110 69 4 0 22 -7 40 -14z"/>
<path d="M6900 12631 c0 -93 0 -93 111 -136 191 -76 427 -92 1009 -71 239 8
492 13 563 9 147 -7 152 -3 83 62 -65 63 -112 75 -326 87 -175 9 -300 20 -970
88 -157 16 -327 32 -377 35 l-93 7 0 -81z"/>
<path d="M6989 12262 c-6 -40 14 -141 48 -244 l26 -76 836 -4 c627 -3 844 -1
867 8 28 11 74 57 74 74 0 9 -165 46 -290 64 -128 20 -260 32 -615 56 -415 29
-716 67 -892 114 -29 8 -53 11 -54 8z"/>
<path d="M7136 11706 c-8 -40 11 -92 50 -143 14 -18 28 -49 31 -68 l6 -35 446
-2 c245 -1 577 -4 736 -5 160 -2 311 -4 337 -4 26 0 59 6 74 13 35 17 71 65
58 77 -13 13 -237 58 -402 81 -154 21 -359 40 -762 70 -151 12 -331 27 -400
35 -173 20 -167 21 -174 -19z"/>
<path d="M7305 11248 c-9 -23 13 -69 51 -105 29 -30 34 -40 34 -82 l0 -48 58
-12 c108 -21 306 -30 722 -32 432 -2 459 0 541 42 20 10 49 33 64 51 l28 33
-34 6 c-83 17 -308 41 -609 64 -453 35 -719 64 -825 91 -17 4 -27 1 -30 -8z"/>
<path d="M7510 10794 c0 -13 16 -65 36 -116 19 -50 38 -113 41 -139 l6 -49
411 -2 c801 -5 743 -7 804 26 29 17 57 38 62 47 14 25 -20 62 -80 88 -62 27
-131 35 -485 61 -395 30 -592 54 -742 94 l-53 14 0 -24z"/>
<path d="M7710 10270 c0 -12 14 -56 30 -99 17 -44 36 -99 43 -123 l13 -43 69
-12 c217 -37 556 -40 851 -9 158 17 386 55 397 65 13 13 -56 79 -104 100 -80
36 -163 42 -362 30 -234 -15 -332 -8 -549 36 -101 20 -215 36 -262 38 -71 2
-86 5 -89 20 -7 24 -37 22 -37 -3z"/>
<path d="M7990 9671 c0 -75 8 -97 73 -193 l51 -78 75 -1 c135 -2 203 2 366 22
88 11 259 24 380 30 332 15 458 42 544 115 23 20 40 38 38 41 -9 8 -228 32
-352 38 -71 3 -285 10 -475 16 -373 10 -561 28 -682 65 -16 5 -18 -2 -18 -55z"/>
<path d="M8150 9162 c0 -25 10 -60 26 -89 18 -34 24 -57 20 -80 -4 -30 -2 -33
32 -43 121 -34 302 -35 595 -5 75 8 229 19 341 25 203 10 317 29 383 64 30 15
93 74 93 86 0 10 -121 29 -260 40 -63 5 -304 10 -535 10 -383 0 -486 4 -642
26 l-53 7 0 -41z"/>
<path d="M8270 8660 l0 -100 49 -25 c118 -59 324 -95 551 -95 180 0 297 13
430 46 102 25 244 91 280 129 l22 23 -39 6 c-79 13 -229 26 -618 56 -220 17
-458 37 -528 45 -71 8 -133 15 -138 15 -5 0 -9 -45 -9 -100z"/>
<path d="M8355 8312 c-3 -3 -5 -40 -5 -82 l0 -77 128 -51 c237 -94 399 -122
696 -122 178 0 303 12 416 41 73 19 160 63 167 85 4 14 -82 47 -192 74 -117
28 -259 47 -445 60 -91 5 -235 15 -320 21 -146 9 -319 30 -402 48 -20 5 -39 6
-43 3z"/>
<path d="M8264 7835 c-9 -50 1 -88 46 -176 22 -43 40 -85 40 -93 0 -24 150
-85 315 -127 233 -60 617 -86 1020 -69 143 6 433 15 645 20 427 9 482 16 605
75 39 18 80 45 93 58 l24 25 -94 6 c-51 3 -208 8 -348 11 -1080 23 -1678 97
-2233 275 -52 16 -97 30 -100 30 -3 0 -9 -16 -13 -35z"/>
<path d="M16510 4899 c-657 -26 -795 -38 -1110 -94 -249 -44 -410 -66 -855
-115 -198 -22 -414 -49 -480 -60 -66 -10 -174 -26 -240 -34 -166 -22 -216 -38
-270 -90 -25 -23 -45 -47 -45 -53 0 -6 17 -9 43 -7 72 7 511 33 987 59 1355
75 1826 117 2485 221 127 20 232 38 234 41 10 8 -57 66 -104 88 -112 55 -200
61 -645 44z"/>
<path d="M5214 4589 c4 -13 27 -65 51 -115 99 -203 230 -278 550 -314 200 -22
436 -12 975 41 168 17 393 33 500 36 107 3 566 -4 1020 -16 1180 -29 1740 -35
2215 -22 412 11 749 27 860 40 l60 7 -93 7 c-205 15 -352 76 -617 253 l-160
106 -190 -6 c-776 -27 -2305 -34 -3520 -16 -341 5 -853 12 -1139 16 l-518 7 6
-24z"/>
<path d="M8022 2578 c-30 -21 -33 -27 -28 -62 10 -81 43 -99 271 -151 258 -58
609 -77 1165 -64 168 4 1120 5 2115 2 2029 -6 3706 11 4145 43 l85 6 -60 31
c-146 74 -385 134 -648 163 -125 14 -486 16 -3067 18 -2725 2 -3359 7 -3830
31 -109 6 -117 5 -148 -17z"/>
</g>
</svg>
